<svg xmlns="http://www.w3.org/2000/svg" height="800" width="1200" viewBox="-50.94945 -16.53975 441.5619 99.2385"><path fill="#212121" d="M195.287 64.269h7.486l-27.327-29.45h-3.868v3.744zm-50.913 0l23.71-25.706v-3.744h-3.868l-27.328 29.45zm27.329-32.943h3.868l27.326-29.449h-7.485l-23.709 25.705zm-3.619 0v-3.744l-23.71-25.705h-7.486l27.328 29.449zm96.832-29.449h5.739v62.392h-5.739zm-53.407 0V43.68c.373 14.6 8.359 22.461 23.584 22.461 9.482 0 19.217-5.365 26.328-11.729v-6.49c-7.735 7.486-16.846 13.229-26.328 13.229-10.732 0-17.844-5.989-17.844-17.471V1.877zM35.562.005c-9.732 0-19.215 5.49-26.328 11.854v6.488C16.971 10.86 25.83 4.996 35.562 4.996c10.606 0 17.721 5.99 17.721 17.47v41.803h5.739V22.466C58.772 7.865 50.912.005 35.562.005zM0 1.877h5.74v62.392H0zM311.087 0c-11.356 0-26.955 4.532-26.955 17.887 0 14.089 17.097 15.873 27.953 17.342 6.738.98 21.836 2.26 21.836 13.042 0 10.659-14.226 12.866-22.211 12.866-10.607 0-24.086-4.045-24.832-16.908h-5.615c.874 16.047 16.097 21.93 30.447 21.93 10.107 0 27.953-3.062 27.953-17.888 0-14.212-16.6-16.615-26.83-18.086-8.985-1.104-22.961-2.496-22.961-12.298 0-9.801 12.854-12.753 21.215-12.753 10.48 0 22.461 4.178 22.461 15.694h5.738C339.287 5.88 324.062 0 311.087 0zM80.86 31.326v1.497h52.035v-3.369C132.644 12.358 120.166.005 102.696.005c-15.992 0-30.277 13.104-31.035 30.213l-.011-.007s-.176 2.124.001 4.854c.007.094.014.173.021.245.923 18.416 13.873 30.707 31.648 30.83 10.979 0 20.838-3.494 28.325-11.354l-3.12-3.619c-6.737 6.613-15.473 9.983-25.205 9.983-14.85 0-26.081-10.981-26.081-27.703v-2.496c0-14.849 12.229-25.955 25.456-25.955 14.475 0 23.459 10.108 24.584 23.085H81.233c-.248.874-.373 2.371-.373 3.245z"/></svg>